PathFileType	4	(X/Y/Z)	C:\Users\°ÂÌØÂü\Desktop\20210112\bx_n_0_1802-Unnamed.trc
DataRate	CameraRate	NumFrames	NumMarkers	Units	OrigDataRate	OrigDataStartFrame	OrigNumFrames
50.00	50.00	       8	0	mm	50.00	160	       425
Frame#	Time	
		

160	3.180	-626.70544	-9.22125	1056.52344	-638.77319	235.51003	1068.41602	-708.51636	281.33963	874.80615	-597.82300	-11.77238	814.26733	-602.09912	221.59691	807.46405	-697.87469	264.57532	745.62231	-711.79669	243.88557	640.79382				-642.77527	14.66304	516.42017	-703.96191	241.08620	575.39410	-647.81445	200.70798	534.70654	-743.79883	250.74649	502.70413	-713.85229	71.30783	214.80759	-650.17297	-68.64524	161.38925	-660.98920	140.29010	579.47870	-763.59924	226.64330	206.63594	-608.31177	-75.15610	158.34509	-882.48267	296.09924	144.64909	-672.64911	53.89206	158.43576	-598.37689	24.47072	167.97833	-552.37555	-32.10480	165.91624	-517.46014	-72.78200	143.54431	-589.02637	211.52501	175.22566	-654.28882	293.12030	155.62584	-617.25720	299.94330	157.87579	-553.16797	247.81667	166.49071	-528.27039	304.15359	146.45328	-665.71057	122.86454	1851.27966	-702.70258	288.77420	1534.10974	-793.69940	177.36601	185.86636	-670.15918	-70.53954	1546.04089	-790.61908	41.93070	176.41776	-828.88495	86.67995	1059.85437	-740.69226	-39.07757	489.12967	-756.82483	-17.09300	208.24133	-875.99792	-78.69180	141.55168	-683.20898	-76.22132	872.80157	-694.17346	-30.12709	566.59967	-674.11163	167.46461	157.71532	-598.02026	104.72159	1351.51965	-664.34015	76.25444	574.21606	-689.48175	-61.15255	757.43933	-690.13831	-33.58219	613.73553	-707.81622	150.71214	214.82625	
161	3.200	-629.46063	-9.69192	1055.68616	-641.39758	234.82025	1067.93579	-710.03589	281.33130	874.76959	-599.50214	-12.54535	815.01276	-603.22345	220.86342	808.22217	-697.96826	264.72903	745.36188	-710.31689	243.96439	640.44397				-641.13696	13.99721	516.30762	-701.67114	241.37299	575.57910	-646.08014	201.07973	534.15277	-741.94763	251.06223	502.84424	-713.71936	71.11662	214.79138	-650.33411	-68.82617	161.13132	-659.10034	140.31760	579.64795	-763.21155	226.57643	206.38554	-608.34393	-75.32859	158.42262	-882.39569	296.08740	144.68922	-672.52295	53.71821	158.43878	-598.57410	23.95499	168.64781	-552.67181	-32.42464	165.96143	-517.51257	-72.69602	143.43004	-588.93286	211.77449	175.10748	-654.39215	293.25784	155.53389	-617.19495	299.96201	157.80884	-553.23865	247.97307	166.41350	-528.26050	304.25122	146.51901	-662.82520	122.79509	1850.48254	-701.37958	288.59888	1533.55969	-793.72656	177.30934	185.97487	-668.45258	-70.83949	1545.46716	-790.71051	41.85120	176.44814	-831.41565	86.36588	1059.97827	-739.60352	-39.68890	489.23248	-756.97583	-17.34754	208.31349	-875.99792	-78.69180	141.55168	-685.31116	-76.74985	872.67236	-691.37653	-31.43610	567.38959	-674.21802	167.54703	157.96550	-598.71973	104.26253	1349.91736	-662.49188	75.34269	574.23920	-690.36102	-61.10950	756.73431	-688.89410	-34.23072	613.88300	-707.51953	150.80568	214.58804	
162	3.220	-632.30042	-9.98293	1054.97827	-644.68188	234.53288	1067.39832	-711.99933	280.97501	874.39288	-601.06073	-13.12913	815.70819	-604.36102	220.56714	808.78656	-697.60760	264.52014	744.90662	-708.56677	244.38576	639.85693				-639.72894	13.25043	515.67395	-699.91956	241.73801	575.22357	-644.00317	201.62729	534.26862	-740.41486	251.05557	502.77744	-713.72626	70.69338	214.80211	-650.51538	-69.01825	161.08060	-656.71826	140.39659	579.77405	-763.04877	226.78502	206.22673	-608.38293	-75.52502	158.33261	-882.64056	296.14621	144.78966	-672.39337	53.46919	158.78017	-598.44427	23.97986	169.03162	-552.64038	-32.37909	166.08438	-517.46014	-72.78200	143.54431	-589.14703	211.94615	175.40576	-654.39215	293.25784	155.53389	-617.33990	299.95102	157.65596	-553.19977	247.86656	166.40924	-528.10059	304.06805	146.61795	-659.82190	122.75208	1849.65930	-700.06763	287.86856	1532.96631	-793.50580	177.18025	185.76968	-666.96442	-70.86799	1544.94739	-790.75726	41.56622	176.56303	-834.54523	85.94231	1059.94556	-738.75256	-40.05781	488.83130	-757.09381	-17.49150	208.27876	-875.99792	-78.69180	141.55168	-688.07678	-77.54659	872.23877	-690.32556	-32.15314	567.55042	-674.17413	167.43852	158.30988	-598.94958	103.37260	1348.60669	-660.84753	75.10209	574.07489	-691.25793	-62.30442	756.87500	-687.99805	-34.96711	613.47046	-707.35248	150.98952	214.72310	
163	3.240	-635.45160	-9.77673	1054.12134	-648.02484	234.13976	1066.84875	-713.88617	281.32132	874.38806	-602.60126	-13.43567	815.74866	-605.27826	220.20078	809.77563	-697.59705	264.53439	744.50342	-706.83160	244.37096	639.58405				-638.61206	12.40396	515.35669	-697.40863	242.06160	575.04846	-641.64056	201.66759	533.63098	-738.31256	251.22054	502.47104	-713.50861	70.47989	215.00246	-650.65540	-69.17451	161.02739	-654.58826	140.93369	579.56152	-762.90979	226.87630	206.33583	-608.39709	-75.63056	158.19997	-882.55273	296.27115	144.72351	-672.39197	53.01291	159.12289	-598.75378	24.06427	169.08405	-552.96558	-32.49649	166.10838	-517.46014	-72.78200	143.54431	-589.09918	212.15556	175.65204	-654.39215	293.25784	155.53389	-617.33990	299.95102	157.65596	-553.23865	247.97307	166.41350	-528.14520	304.10596	146.58832	-656.49353	122.80913	1848.81055	-698.47272	287.68146	1532.31006	-793.51306	177.51918	186.04596	-665.27399	-71.35852	1544.24084	-790.75726	41.56622	176.56303	-837.77832	85.16225	1059.84631	-737.25360	-40.44602	488.91751	-757.18878	-17.73251	208.32520	-875.95648	-78.79716	141.44162	-690.23145	-77.90930	872.12463	-689.01648	-32.54543	566.71869	-674.17957	167.80214	158.18256	-598.77887	102.89496	1346.97009	-659.22577	74.04596	573.56543	-691.86725	-62.71018	756.41425	-686.34357	-35.46129	612.86438	-707.29346	151.06024	214.73251	
164	3.260	-638.62683	-11.21250	1053.97400	-651.47510	233.98582	1066.01025	-715.71588	281.05316	873.81238	-604.62384	-13.63622	816.41150	-606.63544	219.65656	809.80438	-697.88812	264.73837	744.23822	-704.72784	245.02832	638.90472				-636.89160	11.56222	515.38910	-694.86566	242.22865	574.17181	-639.53125	202.02563	533.33429	-735.98956	251.91370	502.37103	-713.02081	70.30516	215.33340	-650.65540	-69.17451	161.02739	-652.27014	141.27017	579.54144	-762.85345	226.80801	206.38202	-608.42474	-75.94659	158.03662	-882.45593	296.22400	144.77756	-672.40509	52.73687	159.00291	-598.30499	23.55588	169.62222	-552.95966	-32.51004	165.88716	-517.46014	-72.78200	143.54431	-589.16193	212.43156	175.63666	-654.40613	293.19174	155.46417	-617.42279	300.15460	157.54453	-553.34375	248.03677	166.23242	-528.11072	304.29047	146.63930	-653.49792	122.27750	1847.66992	-696.54730	287.08969	1531.44861	-793.40979	177.52266	186.10826	-663.28857	-71.82702	1543.32654	-790.72522	41.38215	176.47530	-840.72601	84.94357	1059.97583	-736.56946	-41.02179	488.46521	-757.07605	-17.91560	208.36021	-875.99792	-78.69180	141.55168	-692.49567	-78.53577	871.24640	-687.62042	-33.19927	566.10016	-673.85229	167.57874	158.32800	-598.88007	102.65565	1345.56470	-658.13312	73.34340	573.73401	-692.33026	-63.43621	756.08698	-685.56171	-35.87336	612.72302	-707.10474	151.17255	214.88332	
165	3.280	-641.49457	-11.06623	1053.10303	-654.16821	233.47681	1065.21252	-717.78870	280.41519	873.11639	-605.76471	-14.02917	816.88995	-607.56012	219.42099	810.45459	-697.34821	265.03146	743.33612	-702.91125	245.43257	638.17682				-636.10095	10.65203	514.39417	-692.21051	242.95042	574.06177	-637.02319	202.63599	532.68073	-734.11615	252.08168	502.39105	-713.02081	70.30516	215.33340	-650.72760	-69.33410	160.69907	-649.86810	141.68071	579.17078	-762.66840	227.16692	206.35352	-608.40955	-76.19629	157.97675	-882.53607	296.17834	144.77385	-672.21564	52.61367	159.23396	-598.30499	23.55588	169.62222	-553.05536	-32.49928	166.23764	-517.46014	-72.78200	143.54431	-589.27252	212.55647	175.84467	-654.47675	293.30786	155.51451	-617.46228	300.29590	157.46210	-553.38031	248.09845	166.37032	-528.18390	304.18793	146.52794	-650.02856	122.07838	1846.25977	-694.82703	286.79034	1530.56470	-793.45435	177.36966	186.26433	-661.61877	-72.09520	1542.31885	-790.87976	41.27623	176.63603	-843.51636	84.46004	1059.90186	-736.33069	-42.06898	488.66785	-757.26434	-18.09201	208.05664	-875.95648	-78.79716	141.44162	-694.60229	-79.33012	870.92694	-686.28351	-33.99615	565.54486	-673.99146	167.66849	158.18793	-599.17523	101.77183	1343.55981	-656.34174	72.63940	573.69037	-692.75598	-64.15238	755.88831	-684.67047	-36.84141	612.33826	-707.59229	151.59906	214.56827	
166	3.300	-644.63434	-11.40353	1051.68384	-657.57605	233.12796	1064.23560	-719.72864	280.65924	872.42163	-607.99579	-14.55701	817.30676	-608.10876	219.46759	811.49744	-696.93561	265.78354	743.01862	-700.80975	246.10335	637.42517				-634.74487	9.99622	514.37585	-690.13776	243.38272	573.44849	-634.64966	203.01910	532.42682	-731.73169	252.61142	501.78705	-713.33661	69.81062	214.96347	-650.77618	-69.59347	160.52672	-647.49622	142.32646	578.58917	-762.59985	227.02225	206.28575	-608.61963	-76.17658	157.78784	-882.59277	296.17218	144.77518	-672.33466	52.47516	159.34914	-598.17841	23.46475	169.77176	-553.22382	-32.62770	166.00436	-517.47424	-72.68487	143.65974	-589.19293	212.61981	175.73669	-654.55109	293.25378	155.31453	-617.53119	300.37097	157.41000	-553.21814	248.18291	166.41115	-528.24829	304.18558	146.58897	-646.71814	121.89091	1844.94641	-693.15308	285.91232	1529.49377	-793.39124	177.36134	186.16301	-659.66296	-72.77215	1540.72864	-790.85278	41.22280	176.17349	-846.55609	84.05304	1059.78931	-735.37042	-42.56065	488.44592	-757.43463	-18.33425	207.91843	-875.99792	-78.69180	141.55168	-696.88654	-79.73631	870.52393	-685.29059	-34.65070	565.51233	-674.15570	167.91318	158.28577	-599.61304	101.51244	1341.43164	-655.32861	71.87070	573.43732	-693.24664	-65.13395	755.67743	-683.21173	-37.37213	611.90381	-707.56409	151.70769	214.47935	
167	3.320	-647.63861	-11.70165	1050.52344	-660.53491	232.47353	1062.99487	-722.02875	280.16095	871.31787	-609.59106	-14.61376	817.80103	-609.08490	219.77727	811.77814	-696.82874	266.19113	742.29492	-699.09009	246.19644	636.87482				-633.34528	8.98579	513.84839	-687.35669	244.10194	573.05524	-632.11823	203.42592	531.43982	-729.70953	253.02502	501.41000	-713.29041	69.68916	215.33617	-651.00427	-69.77490	160.13231	-644.64441	142.39363	578.67377	-762.25409	227.13814	206.22293	-608.70575	-76.37401	157.64427	-882.61292	296.24393	144.79390	-672.62402	52.12518	159.86461	-598.55286	23.26612	170.07870	-553.25714	-32.78795	166.11639	-517.43011	-72.85855	143.62971	-589.23291	212.57899	175.85429	-654.63568	293.30380	155.29515	-617.61572	300.45633	157.46419	-553.31714	248.32060	166.19629	-528.35187	304.34979	146.41586	-643.16644	121.62764	1843.18604	-691.39642	285.16003	1528.30652	-793.12897	177.41373	186.42725	-657.79492	-73.23469	1539.37891	-791.00879	41.01334	176.41736	-849.85052	83.53184	1059.47217	-734.31134	-43.12168	488.35516	-757.36633	-18.54297	207.87286	-875.87335	-78.57735	141.34627	-699.40234	-80.55904	870.52734	-683.74860	-35.60995	565.29242	-674.15570	167.91318	158.28577	-599.83948	101.05109	1339.31152	-654.12433	71.12384	573.32806	-694.03790	-65.28551	755.07806	-682.19769	-38.15208	612.14807	-706.95306	151.84918	214.79666	
